<svg id="Layer_1" data-name="Layer 1" xmlns="http://www.w3.org/2000/svg" viewBox="0 0 210.69 97.91"><defs><style>.cls-1,.cls-2{fill:#fff;}.cls-2{font-size:30px;font-family:MyriadPro-Regular, Myriad Pro;}.cls-3{letter-spacing:-0.01em;}.cls-4{letter-spacing:0em;}</style></defs><title>logo-white</title><polygon class="cls-1" points="103.63 7.18 78.89 21.48 78.89 46.96 86.74 51.85 108.96 38.96 108.96 31.7 118 31.7 118 43.55 86.74 61.63 70.3 51.55 70.3 16.44 98.74 0 103.63 7.18"/><polygon class="cls-1" points="99.33 61.26 124.07 46.96 124.07 21.48 116.22 16.59 94 29.48 94 36.74 84.96 36.74 84.96 24.89 116.22 6.82 132.67 16.89 132.67 52 104.22 68.44 99.33 61.26"/><text class="cls-2" transform="translate(0 90.41)">the <tspan class="cls-3" x="47.97" y="0">c</tspan><tspan x="61.23" y="0">oding sc</tspan><tspan class="cls-4" x="166.74" y="0">r</tspan><tspan x="176.67" y="0">ipt</tspan></text></svg>