<svg xmlns="http://www.w3.org/2000/svg" xmlns:xlink="http://www.w3.org/1999/xlink" version="1.1" x="0px" y="0px" viewBox="0 0 500 500" style="enable-background:new 0 0 500 500;" xml:space="preserve">
<g id="Background_Complete">
</g>
<g id="Background_Simple" style="display:none;">
	<path style="display:inline;fill:#E0E0E0;" d="M436.6,120.09l-2.48-4.04c-19.95-32.46-55.86-52.12-93.91-50.18   c-5.35,0.27-10.67,0.96-15.92,2.06c-34.99,7.4-65.44,33.53-78.07,67c-7.42,19.68-9.5,42.34-23.58,57.97   c-18.33,20.33-49.46,20.97-76.82,20.13c-27.36-0.84-58.51-0.12-76.75,20.29c-11.43,12.78-15.06,30.96-14.14,48.08   c2.44,45.33,34.43,85.86,75.1,106c40.68,20.15,88.57,21.95,133.09,13.09c62.37-12.41,121.68-46.51,157.33-99.16   C456.1,248.66,465.13,176.92,436.6,120.09z"/>
</g>
<g id="Device">
	<g>
		<g>
			<g>
				<g>
					<g>
						<g>
							<path style="fill:#0E538C;" d="M449.92,438.05l-116.79-0.07c-14.05-0.01-25.43-11.4-25.43-25.44l0.06-292.79         c0-14.05,11.4-25.44,25.46-25.44L450,94.37c14.05,0.01,25.43,11.4,25.43,25.45l-0.06,292.79         C475.37,426.67,463.97,438.05,449.92,438.05z"/>
						</g>
					</g>
				</g>
			</g>
		</g>
	</g>
	<g>
		<g>
			<g>
				<g>
					<path style="fill:#FFFFFF;" d="M449.88,104.73l-22.64-0.01c-3.04,0-5.5,2.57-5.5,5.74l0,4.11c0,3.17-2.46,5.75-5.5,5.74       l-44.14-0.03c-3.04,0-5.5-2.58-5.5-5.75l0-4.11c0-3.17-2.46-5.75-5.5-5.75l-7.96,0l-19.82-0.01       c-9.84-0.01-17.83,7.97-17.83,17.81l-0.06,285.79c0,9.84,7.97,17.82,17.81,17.82l116.56,0.07c9.84,0.01,17.82-7.97,17.83-17.81       l0.06-285.79C467.69,112.71,459.72,104.73,449.88,104.73z"/>
				</g>
			</g>
		</g>
	</g>
	<g>
		<g>
			<g>
				<g>
					<rect x="340.42" y="275.16" style="fill:#EBEBEB;" width="100.61" height="20.55"/>
				</g>
			</g>
		</g>
		<g>
			<g>
				<g>
					<rect x="340.42" y="304.98" style="fill:#EBEBEB;" width="100.61" height="20.55"/>
				</g>
			</g>
		</g>
		<g>
			<g>
				<g>
					<path style="fill:#FFBE56;" d="M417.82,366.94h-50.5c-5.67,0-10.28-4.6-10.28-10.28l0,0c0-5.68,4.6-10.28,10.28-10.28h50.5       c5.68,0,10.28,4.6,10.28,10.28l0,0C428.1,362.34,423.5,366.94,417.82,366.94z"/>
				</g>
			</g>
		</g>
		<g>
			<g>
				<g>
					<g>
						<path style="fill:#E0E0E0;" d="M354.31,289.96h-4.44c-0.44,0-0.79-0.35-0.79-0.79l0,0c0-1.64,1.33-2.96,2.96-2.96h0.1        c1.64,0,2.96,1.33,2.96,2.96l0,0C355.1,289.61,354.75,289.96,354.31,289.96z"/>
					</g>
				</g>
			</g>
			<g>
				<g>
					<g>
						<path style="fill:#E0E0E0;" d="M353.86,284.65c0,0.98-0.79,1.77-1.77,1.77c-0.98,0-1.77-0.79-1.77-1.77        c0-0.98,0.79-1.77,1.77-1.77C353.07,282.88,353.86,283.67,353.86,284.65z"/>
					</g>
				</g>
			</g>
		</g>
		<g>
			<g>
				<g>
					<g>
						<rect x="349.44" y="315.58" style="fill:#E0E0E0;" width="5.3" height="3.75"/>
					</g>
				</g>
			</g>
			<g>
				<g>
					<g>
						<path style="fill:#E0E0E0;" d="M355.34,316.38h-1.78v-1.16c0-0.83-0.67-1.5-1.5-1.5c-0.83,0-1.5,0.67-1.5,1.5v1.16h-1.78        v-1.16c0-1.81,1.47-3.28,3.28-3.28c1.81,0,3.28,1.47,3.28,3.28V316.38z"/>
					</g>
				</g>
			</g>
		</g>
		<path d="M345.13,141.31c0,1.12,0,2.25,0,3.37c0,0.51-0.2,0.71-0.7,0.71c-1.3,0-2.6,0-3.9,0c-0.48,0-0.67-0.2-0.67-0.67    c0-0.81,0.01-1.63-0.01-2.44c-0.02-0.89-0.86-1.43-1.66-1.06c-0.46,0.21-0.66,0.6-0.66,1.1c0,0.77,0,1.53,0,2.3    c0,0.61-0.17,0.77-0.78,0.77c-1.23,0-2.46,0-3.69,0c-0.54,0-0.72-0.17-0.72-0.71c0-2.22,0-4.44,0-6.66c0-0.6,0.22-1.06,0.71-1.41    c1.76-1.26,3.5-2.53,5.26-3.79c0.32-0.23,0.52-0.23,0.85,0c1.75,1.26,3.5,2.53,5.26,3.79c0.49,0.35,0.72,0.81,0.71,1.41    C345.12,139.12,345.13,140.21,345.13,141.31z M333.4,144.29c1.04,0,2.05,0,3.09,0c0-0.68-0.01-1.33,0-1.99    c0.01-1.27,0.99-2.25,2.22-2.25c1.23,0,2.21,0.98,2.23,2.25c0.01,0.56,0.02,1.13,0,1.69c-0.01,0.27,0.06,0.37,0.35,0.36    c0.8-0.02,1.61-0.01,2.41-0.01c0.1,0,0.21-0.01,0.34-0.02c0-0.15,0-0.27,0-0.4c0-1.92-0.01-3.84,0-5.76c0-0.34-0.1-0.56-0.38-0.75    c-1.59-1.14-3.17-2.29-4.76-3.45c-0.14-0.1-0.24-0.11-0.38-0.01c-1.6,1.16-3.21,2.32-4.81,3.47c-0.23,0.16-0.33,0.35-0.32,0.63    c0.01,1.97,0,3.94,0,5.9C333.4,144.07,333.4,144.17,333.4,144.29z"/>
		<path d="M453.12,134.39H440.8c-0.24,0-0.44-0.2-0.44-0.44l0,0c0-0.24,0.2-0.44,0.44-0.44h12.32c0.24,0,0.44,0.2,0.44,0.44l0,0    C453.55,134.19,453.36,134.39,453.12,134.39z"/>
		<path d="M453.12,137.92H440.8c-0.24,0-0.44-0.2-0.44-0.44l0,0c0-0.24,0.2-0.44,0.44-0.44h12.32c0.24,0,0.44,0.2,0.44,0.44l0,0    C453.55,137.72,453.36,137.92,453.12,137.92z"/>
		<path d="M453.12,141.45H440.8c-0.24,0-0.44-0.2-0.44-0.44l0,0c0-0.24,0.2-0.44,0.44-0.44h12.32c0.24,0,0.44,0.2,0.44,0.44l0,0    C453.55,141.25,453.36,141.45,453.12,141.45z"/>
	</g>
	<path style="fill:#1E0F00;" d="M419.92,261.84h-56.47c-1.72,0-3.12-1.4-3.12-3.12v-1.38c0-1.72,1.4-3.12,3.12-3.12h56.47   c1.72,0,3.12,1.4,3.12,3.12v1.38C423.04,260.43,421.63,261.84,419.92,261.84z"/>
	<path style="fill:#FFBE56;" d="M408.39,395.21h-29.23c-1.72,0-3.12-1.4-3.12-3.12v-1.38c0-1.72,1.4-3.12,3.12-3.12h29.23   c1.72,0,3.12,1.4,3.12,3.12v1.38C411.51,393.81,410.11,395.21,408.39,395.21z"/>
	<path style="fill:#E0E0E0;" d="M422.06,385.67H365.5c-1.72,0-3.12-1.4-3.12-3.12v-1.38c0-1.72,1.4-3.12,3.12-3.12h56.57   c1.72,0,3.12,1.4,3.12,3.12v1.38C425.18,384.26,423.78,385.67,422.06,385.67z"/>
</g>
<g id="Prototyping">
	<g>
		<g>
			<g>
				<g>
					<g>
						<g>
							<g>
								<g>
									<g>
										<g>
											<g>
												<g>
													<path style="fill:#FFFFFF;" d="M215.06,131.74L194,131.72c-2.82,0-5.11,2.39-5.11,5.34l0,3.82               c0,2.95-2.29,5.34-5.11,5.34l-41.05-0.02c-2.82,0-5.11-2.4-5.11-5.35l0-3.82c0-2.95-2.29-5.35-5.11-5.35l-7.41,0               l-18.43-0.01c-9.15-0.01-16.58,7.41-16.58,16.57l-0.05,265.79c0,9.15,7.41,16.57,16.56,16.57l108.4,0.06               c9.15,0.01,16.58-7.41,16.58-16.57l0.05-265.79C231.62,139.16,224.21,131.74,215.06,131.74z"/>
												</g>
											</g>
										</g>
										<g>
											<g>
												<g>
													<g>
														<path style="fill:#1E0F00;" d="M215.06,131.74c0,0,0.19,0,0.57,0.02c0.37,0.04,0.95-0.01,1.68,0.13                c1.47,0.17,3.7,0.65,6.22,2.15c1.27,0.72,2.56,1.75,3.78,3.06c1.22,1.32,2.35,2.97,3.16,4.95                c0.82,1.97,1.26,4.27,1.24,6.73c0,2.45,0.01,5.05,0.01,7.81c0.01,22.08,0.03,54.02,0.06,93.49                c0.01,39.47,0.01,86.47,0.02,138.66c0,6.52,0,13.13,0,19.81c0,1.67,0,3.35,0,5.03c-0.02,1.68-0.13,3.42-0.63,5.05                c-0.48,1.64-1.16,3.24-2.12,4.67c-0.96,1.43-2.12,2.72-3.45,3.83c-2.69,2.16-6.07,3.54-9.57,3.71                c-3.47,0.1-6.92,0.03-10.41,0.05c-6.97,0-14-0.01-21.1-0.01c-14.2-0.01-28.65-0.01-43.31-0.02                c-7.33,0-14.72-0.01-22.15-0.01c-3.72,0-7.45,0-11.19-0.01c-3.76,0.19-7.65-0.8-10.79-2.98                c-3.15-2.16-5.48-5.44-6.57-9.07c-0.58-1.81-0.69-3.74-0.69-5.61c0-1.87,0-3.73,0-5.59c0-7.44,0-14.82,0.01-22.16                c0-14.67,0.01-29.12,0.01-43.32c0.01-28.4,0.02-55.8,0.03-81.9c0.01-26.1,0.02-50.9,0.04-74.11                c0.01-11.6,0.01-22.81,0.02-33.58c0-1.35,0-2.69,0-4.02c0.01-0.67,0.06-1.34,0.09-2.01c0.12-0.66,0.17-1.33,0.34-1.97                c0.61-2.59,1.81-5.02,3.49-7.02c1.69-1.99,3.81-3.56,6.15-4.59c2.33-1.05,4.89-1.42,7.37-1.39                c4.93,0.01,9.75,0.01,14.44,0.02c2.35,0,4.66,0.01,6.95,0.01c1.14,0,2.28,0,3.4,0c1.14-0.06,2.33,0.26,3.26,0.91                c0.94,0.66,1.66,1.6,2.03,2.66c0.42,1.06,0.32,2.21,0.34,3.27c0,0.54,0,1.08,0,1.61c0,0.54-0.02,1.07,0.05,1.58                c0.13,1.03,0.56,2.01,1.24,2.77c0.66,0.78,1.56,1.33,2.53,1.57c0.49,0.12,0.98,0.16,1.49,0.15c0.51,0,1.02,0,1.53,0                c2.03,0,4.02,0.01,5.98,0.01c7.84,0.01,15.13,0.02,21.85,0.03c3.36,0.01,6.57,0.01,9.63,0.02                c0.76-0.01,1.53,0.03,2.26-0.03c0.73-0.08,1.42-0.33,2.03-0.71c1.22-0.76,2.04-2.01,2.32-3.34                c0.15-0.66,0.13-1.34,0.13-2.01c0-0.67,0-1.33,0-1.98c0.01-0.65-0.03-1.3,0.09-1.93c0.11-0.63,0.32-1.23,0.63-1.78                c0.6-1.09,1.57-1.91,2.65-2.34c1.09-0.47,2.25-0.33,3.29-0.35c4.25,0.01,7.84,0.02,10.75,0.03                c2.9,0.01,5.12,0.02,6.61,0.03C214.3,131.72,215.06,131.74,215.06,131.74s-0.76,0.02-2.25,0.02                c-1.49,0-3.71,0.01-6.61,0.02c-2.91,0-6.5,0.01-10.75,0.02c-1.06,0.02-2.19-0.11-3.24,0.35                c-1.04,0.41-1.98,1.22-2.56,2.28c-0.29,0.53-0.5,1.11-0.6,1.72c-0.11,0.61-0.07,1.25-0.08,1.9c0,0.65,0,1.31,0,1.98                c0,0.66,0.03,1.36-0.13,2.05c-0.29,1.37-1.14,2.67-2.4,3.46c-0.63,0.4-1.35,0.66-2.11,0.75                c-0.77,0.07-1.51,0.02-2.28,0.03c-3.06,0-6.28,0-9.63,0c-6.72,0-14.01,0-21.85,0.01c-1.96,0-3.95,0-5.98,0                c-0.51,0-1.02,0-1.53,0c-0.51,0.01-1.05-0.02-1.56-0.15c-1.03-0.25-1.98-0.84-2.68-1.66                c-0.71-0.81-1.17-1.84-1.31-2.92c-0.07-0.55-0.05-1.09-0.06-1.62c0-0.54,0-1.07,0-1.61                c-0.01-1.08,0.08-2.17-0.32-3.17c-0.35-1.01-1.04-1.9-1.92-2.52c-0.89-0.62-1.98-0.91-3.09-0.85c-1.13,0-2.26,0-3.4,0                c-2.29,0-4.6,0-6.95,0c-4.69,0-9.51,0-14.44,0c-2.45-0.03-4.94,0.34-7.23,1.37c-2.28,1.01-4.36,2.56-6.02,4.51                c-1.64,1.96-2.81,4.34-3.41,6.88c-0.17,0.63-0.22,1.29-0.33,1.93c-0.03,0.66-0.08,1.31-0.09,1.97                c0,1.33,0,2.67,0,4.02c0,10.77,0,21.98,0.01,33.58c0,23.21,0,48.01,0.01,74.11c0,26.1,0,53.5,0,81.9                c0,14.2,0,28.65,0,43.32c0,7.33,0,14.72,0,22.16c0,1.86,0,3.72,0,5.59c0,1.86,0.1,3.7,0.67,5.47                c1.06,3.53,3.32,6.72,6.39,8.82c3.07,2.12,6.8,3.08,10.53,2.9c3.74,0,7.47,0,11.19,0.01c7.43,0,14.82,0.01,22.15,0.01                c14.66,0.01,29.11,0.02,43.31,0.03c7.1,0.01,14.14,0.01,21.1,0.01c3.48-0.02,6.97,0.06,10.39-0.04                c3.41-0.17,6.69-1.51,9.31-3.61c1.3-1.08,2.43-2.34,3.36-3.73c0.94-1.39,1.6-2.95,2.06-4.55                c0.5-1.6,0.6-3.27,0.62-4.94c0-1.68,0-3.35,0-5.03c0-6.68,0.01-13.29,0.01-19.81c0.03-52.19,0.06-99.19,0.08-138.66                c0.04-39.47,0.07-71.41,0.09-93.49c0-2.76,0.01-5.36,0.01-7.81c0.03-2.44-0.4-4.72-1.21-6.67                c-0.8-1.96-1.91-3.6-3.11-4.92c-1.21-1.31-2.48-2.34-3.74-3.06c-2.49-1.5-4.71-1.99-6.17-2.18                c-0.73-0.15-1.3-0.11-1.67-0.15C215.25,131.75,215.06,131.74,215.06,131.74z"/>
													</g>
												</g>
											</g>
										</g>
									</g>
								</g>
							</g>
						</g>
					</g>
				</g>
			</g>
			<g>
				<g>
					<g>
						<g>
							<path style="fill:#1E0F00;" d="M217.19,156.64c0,0.18-3.49,0.32-7.8,0.32c-4.31,0-7.8-0.14-7.8-0.32         c0-0.18,3.49-0.32,7.8-0.32C213.7,156.32,217.19,156.46,217.19,156.64z"/>
						</g>
					</g>
				</g>
				<g>
					<g>
						<g>
							<path style="fill:#1E0F00;" d="M215.59,159.21c0,0.18-3.49,0.32-7.8,0.32c-4.31,0-7.8-0.14-7.8-0.32         c0-0.18,3.49-0.32,7.8-0.32C212.09,158.89,215.59,159.04,215.59,159.21z"/>
						</g>
					</g>
				</g>
				<g>
					<g>
						<g>
							<path style="fill:#1E0F00;" d="M216.39,161.62c0,0.18-3.49,0.32-7.8,0.32c-4.31,0-7.8-0.14-7.8-0.32         c0-0.18,3.49-0.32,7.8-0.32C212.9,161.31,216.39,161.45,216.39,161.62z"/>
						</g>
					</g>
				</g>
			</g>
			<g>
				<g>
					<g>
						<g>
							<path style="fill:#1E0F00;" d="M173.27,181.7c0,0,0.2,0.05,0.58,0.18c0.41,0.14,0.97,0.34,1.69,0.59         c0.73,0.3,1.62,0.69,2.67,1.18c1.01,0.55,2.21,1.15,3.45,1.99c2.51,1.63,5.39,3.96,8.16,7.21c1.35,1.65,2.73,3.48,3.91,5.59         c0.64,1.03,1.15,2.17,1.71,3.31c0.48,1.18,1.02,2.38,1.4,3.67c1.72,5.09,2.24,11.15,1.1,17.37         c-1.13,6.21-3.94,12.61-8.54,18.06c-2.3,2.72-5.05,5.18-8.19,7.18c-3.14,2.01-6.67,3.55-10.4,4.57         c-7.47,2.03-15.85,1.84-23.61-0.88c-7.76-2.78-14.27-8.12-18.64-14.5c-4.42-6.37-6.89-13.71-7.23-20.83         c-0.34-7.11,1.31-13.96,4.54-19.42c3.21-5.51,7.98-9.36,12.7-11.87c4.75-2.53,9.53-3.78,13.73-4.39         c4.22-0.61,7.9-0.61,10.89-0.48c5.98,0.33,9.22,1.06,9.22,1.06s-0.21-0.01-0.61-0.06c-0.43-0.05-1.02-0.12-1.78-0.22         c-1.56-0.18-3.87-0.43-6.85-0.54c-2.98-0.09-6.64-0.05-10.83,0.59c-4.17,0.64-8.89,1.91-13.57,4.44         c-4.65,2.51-9.33,6.32-12.46,11.74c-3.15,5.38-4.76,12.12-4.41,19.12c0.35,7,2.8,14.24,7.16,20.5         c4.31,6.28,10.71,11.52,18.34,14.25c7.63,2.68,15.88,2.87,23.23,0.88c7.38-1.95,13.81-6.15,18.31-11.52         c4.55-5.35,7.33-11.65,8.47-17.77c1.15-6.13,0.67-12.1-1.01-17.14c-0.37-1.28-0.9-2.46-1.36-3.64         c-0.56-1.13-1.05-2.26-1.68-3.29c-1.15-2.1-2.5-3.92-3.83-5.56c-2.72-3.24-5.55-5.58-8.03-7.23c-1.22-0.85-2.4-1.46-3.4-2.03         c-1.03-0.5-1.91-0.91-2.63-1.23c-0.71-0.28-1.27-0.49-1.67-0.64C173.45,181.8,173.27,181.7,173.27,181.7z"/>
						</g>
					</g>
				</g>
				<g>
					<g>
						<g>
							<g>
								<path style="fill:#1E0F00;" d="M182.91,231.9c-0.02,0.01-0.12-0.21-0.29-0.62c-0.19-0.48-0.43-1.09-0.73-1.82          c-0.63-1.58-1.5-3.89-2.86-6.6c-1.36-2.69-3.23-5.85-6.19-8.52c-1.47-1.33-3.21-2.53-5.18-3.38          c-1.98-0.83-4.2-1.31-6.47-1.13c-4.58,0.3-8.58,2.66-11.38,5.43c-2.81,2.83-4.51,6.09-5.6,8.89          c-1.1,2.82-1.65,5.23-2.01,6.89c-0.16,0.78-0.28,1.41-0.39,1.92c-0.09,0.44-0.14,0.67-0.16,0.67          c-0.02,0-0.01-0.24,0.04-0.69c0.04-0.45,0.13-1.1,0.27-1.95c0.29-1.68,0.77-4.12,1.83-7c1.06-2.86,2.74-6.21,5.61-9.15          c2.86-2.86,6.97-5.33,11.75-5.65c2.37-0.18,4.71,0.32,6.76,1.19c2.05,0.89,3.84,2.14,5.33,3.52          c3.02,2.77,4.88,6.02,6.2,8.76c1.31,2.77,2.12,5.11,2.68,6.71c0.25,0.75,0.45,1.37,0.61,1.86          C182.87,231.67,182.93,231.9,182.91,231.9z"/>
							</g>
						</g>
					</g>
					<g>
						<g>
							<g>
								<path style="fill:#1E0F00;" d="M162.15,192.7c0-0.02,0.16-0.01,0.45,0.03c0.3,0.03,0.73,0.14,1.26,0.36          c1.05,0.41,2.51,1.4,3.53,3.21c0.5,0.9,0.89,2,0.94,3.22c0.05,1.22-0.25,2.56-0.99,3.74c-1.4,2.33-4.41,4.17-7.64,3.69          c-3.22-0.55-5.52-3.18-6.21-5.81c-0.38-1.33-0.31-2.69,0.02-3.86c0.34-1.17,0.95-2.16,1.62-2.94          c1.36-1.56,2.94-2.29,4.03-2.56c0.55-0.15,0.99-0.2,1.29-0.2c0.3-0.01,0.45,0,0.45,0.02c0.01,0.06-0.62,0.08-1.67,0.42          c-1.04,0.34-2.51,1.1-3.75,2.62c-0.61,0.76-1.16,1.7-1.45,2.79c-0.28,1.09-0.33,2.34,0.04,3.56          c0.66,2.43,2.83,4.85,5.74,5.34c2.92,0.44,5.73-1.23,7.04-3.37c0.69-1.07,0.98-2.29,0.96-3.41          c-0.03-1.13-0.36-2.17-0.81-3.03c-0.91-1.73-2.25-2.74-3.23-3.2C162.77,192.83,162.14,192.77,162.15,192.7z"/>
							</g>
						</g>
					</g>
				</g>
			</g>
			<g>
				<g>
					<g>
						<g>
							<path style="fill:#1E0F00;" d="M199.09,277.01c-0.01,0.02-0.3-0.08-0.85-0.3c-0.55-0.21-1.37-0.5-2.45-0.78         c-2.15-0.56-5.4-1.12-9.35-0.54c-1.97,0.27-4.09,0.84-6.21,1.81c-1.06,0.48-2.14,1.07-3.34,1.53         c-1.18,0.45-2.56,0.83-3.96,0.45c-3-0.78-3.45-4.72-6.15-5.23c-1.32-0.28-2.53,0.69-3.51,1.74c-1.02,1.05-1.97,2.28-3.29,3.2         c-0.66,0.47-1.45,0.73-2.26,0.86c-0.81,0.05-1.63-0.05-2.35-0.35c-1.46-0.57-2.65-1.51-3.79-2.4         c-1.13-0.9-2.22-1.81-3.39-2.49c-1.15-0.69-2.45-1.11-3.67-0.88c-1.25,0.16-2.25,1-3.05,1.91c-0.81,0.92-1.49,1.95-2.25,2.87         c-0.75,0.92-1.63,1.77-2.66,2.26c-1.03,0.5-2.12,0.7-3.16,0.68c-2.08-0.04-3.88-1-4.92-2.28c-1.04-1.28-1.44-2.7-1.52-3.83         c-0.1-1.14,0.13-2.02,0.32-2.58c0.2-0.56,0.39-0.82,0.39-0.82c0.1,0.02-0.67,1.15-0.47,3.38c0.11,1.09,0.53,2.43,1.54,3.62         c1,1.18,2.7,2.04,4.65,2.06c0.97,0,1.99-0.2,2.93-0.67c0.95-0.47,1.75-1.25,2.47-2.16c0.73-0.9,1.4-1.93,2.24-2.9         c0.83-0.95,1.94-1.92,3.37-2.11c1.41-0.27,2.87,0.21,4.08,0.93c1.23,0.72,2.34,1.64,3.47,2.53c1.13,0.88,2.29,1.79,3.62,2.3         c0.66,0.27,1.36,0.35,2.06,0.31c0.69-0.12,1.37-0.33,1.97-0.76c1.2-0.84,2.14-2.03,3.19-3.12c0.53-0.54,1.08-1.08,1.77-1.47         c0.67-0.4,1.52-0.6,2.31-0.44c0.8,0.11,1.5,0.57,2.01,1.1c0.53,0.53,0.94,1.12,1.34,1.69c0.79,1.12,1.64,2.19,2.85,2.5         c1.19,0.33,2.47,0.02,3.61-0.41c1.16-0.43,2.23-1.01,3.32-1.49c2.18-0.98,4.36-1.53,6.37-1.78c4.04-0.52,7.33,0.11,9.48,0.75         c1.08,0.33,1.89,0.66,2.43,0.9C198.83,276.85,199.1,276.99,199.09,277.01z"/>
						</g>
					</g>
				</g>
				<g>
					<g>
						<g>
							<path style="fill:#1E0F00;" d="M180.45,287.99c0,0.18-7.88,0.32-17.6,0.32c-9.72,0-17.6-0.14-17.6-0.32         c0-0.18,7.88-0.32,17.6-0.32C172.56,287.67,180.45,287.81,180.45,287.99z"/>
						</g>
					</g>
				</g>
			</g>
			<g>
				<g>
					<g>
						<g>
							<g>
								<path style="fill:#1E0F00;" d="M106.84,331.21c-0.18,0-0.24-4.99-0.14-11.14c0.1-6.15,0.32-11.14,0.5-11.14          s0.24,4.99,0.14,11.15C107.24,326.23,107.02,331.21,106.84,331.21z"/>
							</g>
						</g>
					</g>
					<g>
						<g>
							<g>
								<path style="fill:#1E0F00;" d="M212.97,332.2c0,0.18-24.24-0.07-54.14-0.54c-29.9-0.48-54.13-1-54.13-1.18          c0-0.18,24.24,0.07,54.14,0.54C188.74,331.5,212.97,332.03,212.97,332.2z"/>
							</g>
						</g>
					</g>
					<g>
						<g>
							<g>
								<path style="fill:#1E0F00;" d="M212.52,307.32c0,0.18-23.44,0.68-52.35,1.12c-28.92,0.44-52.36,0.66-52.36,0.48          c0-0.18,23.43-0.68,52.35-1.12C189.08,307.36,212.52,307.14,212.52,307.32z"/>
							</g>
						</g>
					</g>
					<g>
						<g>
							<g>
								<path style="fill:#1E0F00;" d="M212.08,331.66c-0.18,0-0.32-5.49-0.32-12.25c0-6.77,0.14-12.25,0.32-12.25          c0.18,0,0.32,5.49,0.32,12.25C212.4,326.17,212.26,331.66,212.08,331.66z"/>
							</g>
						</g>
					</g>
				</g>
				<g>
					<g>
						<g>
							<path style="fill:#1E0F00;" d="M119.49,317.04c0-0.03,0.27-0.08,0.74,0.06c0.46,0.13,1.11,0.51,1.63,1.22         c0.5,0.7,0.91,1.79,0.59,2.98c-0.3,1.21-1.53,2.15-2.89,2.31c-1.35,0.18-2.78-0.42-3.37-1.52c-0.61-1.07-0.48-2.23-0.17-3.04         c0.33-0.82,0.86-1.34,1.27-1.59c0.42-0.25,0.7-0.27,0.7-0.24c0.08,0.09-1.06,0.44-1.55,1.98c-0.23,0.73-0.27,1.74,0.25,2.58         c0.49,0.86,1.64,1.34,2.79,1.19c1.15-0.14,2.14-0.89,2.4-1.84c0.29-0.95,0-1.91-0.4-2.57         C120.63,317.2,119.44,317.15,119.49,317.04z"/>
						</g>
					</g>
				</g>
			</g>
			<g>
				<g>
					<g>
						<g>
							<path style="fill:#1E0F00;" d="M110.44,365.53c-0.17,0.02-0.93-4.64-1.69-10.42c-0.76-5.78-1.24-10.48-1.06-10.51         c0.17-0.02,0.93,4.64,1.69,10.42C110.14,360.8,110.61,365.5,110.44,365.53z"/>
						</g>
					</g>
				</g>
				<g>
					<g>
						<g>
							<path style="fill:#1E0F00;" d="M207.69,345.16c0,0.18-22.14,0.32-49.44,0.32c-27.31,0-49.44-0.14-49.44-0.32         c0-0.18,22.13-0.32,49.44-0.32C185.55,344.85,207.69,344.99,207.69,345.16z"/>
						</g>
					</g>
				</g>
				<g>
					<g>
						<g>
							<path style="fill:#1E0F00;" d="M211.19,364.18c-0.18,0-0.32-3.99-0.32-8.91c0-4.92,0.14-8.91,0.32-8.91         c0.18,0,0.32,3.99,0.32,8.91C211.51,360.19,211.37,364.18,211.19,364.18z"/>
						</g>
					</g>
				</g>
				<g>
					<g>
						<g>
							<path style="fill:#1E0F00;" d="M212.08,365.38c0,0.18-22.43,0.32-50.1,0.32c-27.67,0-50.1-0.14-50.1-0.32         s22.43-0.32,50.1-0.32C189.65,365.06,212.08,365.2,212.08,365.38z"/>
						</g>
					</g>
				</g>
				<g>
					<g>
						<g>
							<path style="fill:#1E0F00;" d="M118.15,354.35c-0.02-0.02,0.17-0.22,0.64-0.34c0.46-0.12,1.22-0.06,1.94,0.43         c0.35,0.25,0.71,0.61,0.92,1.1c0.21,0.49,0.25,1.1,0.07,1.67c-0.34,1.12-1.47,2.16-2.91,2.14c-1.42-0.06-2.49-1.11-2.88-2.18         c-0.43-1.12-0.1-2.24,0.37-2.93c0.48-0.72,1.07-1.11,1.5-1.29c0.43-0.19,0.69-0.2,0.7-0.16c0.06,0.1-1.03,0.35-1.81,1.69         c-0.37,0.65-0.59,1.59-0.21,2.49c0.35,0.89,1.27,1.72,2.35,1.76c1.08,0.04,2.04-0.8,2.33-1.68c0.33-0.91-0.11-1.79-0.7-2.23         c-0.58-0.46-1.23-0.58-1.64-0.55C118.4,354.29,118.17,354.4,118.15,354.35z"/>
						</g>
					</g>
				</g>
			</g>
			<g>
				<g>
					<g>
						<g>
							<path style="fill:#FFBE56;" d="M133.61,407.98c0,0.02-0.13,0.06-0.38,0.1c-0.25,0.03-0.63,0.14-1.12,0.14         c-0.98,0.07-2.43-0.05-4.11-0.62c-1.68-0.56-3.55-1.66-5.17-3.37c-1.62-1.69-2.92-4.09-3.2-6.83         c-0.22-2.75,0.62-5.34,1.9-7.31c1.28-1.98,2.92-3.4,4.47-4.26c1.55-0.87,2.95-1.25,3.93-1.36c0.48-0.09,0.87-0.05,1.13-0.07         c0.26,0,0.39,0.01,0.39,0.03c0.04,0.17-2.26-0.01-5.22,1.79c-1.46,0.88-3.01,2.28-4.2,4.19c-1.2,1.89-1.97,4.36-1.76,6.93         c0.27,2.57,1.48,4.85,3,6.49c1.53,1.66,3.3,2.75,4.9,3.35C131.39,408.4,133.62,407.81,133.61,407.98z"/>
						</g>
					</g>
				</g>
				<g>
					<g>
						<g>
							<path style="fill:#FFBE56;" d="M200.94,407.4c0,0.18-13.87,0.32-30.97,0.32c-17.11,0-30.97-0.14-30.97-0.32         c0-0.18,13.86-0.32,30.97-0.32C187.08,407.08,200.94,407.23,200.94,407.4z"/>
						</g>
					</g>
				</g>
				<g>
					<g>
						<g>
							<path style="fill:#FFBE56;" d="M201.59,405.86c-0.04-0.09,1.41-0.3,3.43-1.77c1-0.73,2.11-1.82,3.01-3.33         c0.9-1.5,1.51-3.48,1.42-5.69c-0.09-2.19-0.85-4.62-2.54-6.59c-1.68-1.97-4.2-3.37-7.05-4.05c-2.85-0.71-5.97-0.85-9.19-0.83         c-3.23,0.04-6.58,0.08-10.01,0.12c-13.69,0.12-26.09,0.23-35.13,0.31c-4.45,0.01-8.07,0.02-10.65,0.02         c-1.21-0.01-2.18-0.02-2.9-0.03c-0.66-0.01-1.01-0.03-1.01-0.05c0-0.02,0.35-0.05,1.01-0.08c0.72-0.02,1.68-0.05,2.89-0.09         c2.58-0.05,6.2-0.13,10.65-0.22c9.05-0.13,21.44-0.3,35.13-0.5c3.43-0.04,6.78-0.07,10.01-0.1c3.24-0.01,6.41,0.14,9.33,0.89         c2.92,0.72,5.56,2.19,7.31,4.28c1.75,2.09,2.51,4.63,2.58,6.91c0.06,2.3-0.61,4.36-1.57,5.89c-0.96,1.54-2.12,2.63-3.17,3.35         c-1.05,0.72-1.97,1.11-2.6,1.32c-0.31,0.11-0.56,0.17-0.73,0.21C201.68,405.86,201.59,405.87,201.59,405.86z"/>
						</g>
					</g>
				</g>
				<g>
					<g>
						<g>
							<path style="fill:#1E0F00;" d="M197.51,397.34c0,0.02-0.25,0.06-0.73,0.1c-0.55,0.04-1.24,0.09-2.09,0.16         c-1.9,0.11-4.5,0.27-7.69,0.46c-6.57,0.33-15.5,0.78-25.37,1.28c-2.84,0.14-5.75,0.26-8.36-0.67         c-1.29-0.46-2.44-1.08-3.62-1.47c-1.17-0.41-2.38-0.52-3.45-0.13c-2.14,0.8-3.67,2.77-5.83,3.27         c-2.13,0.73-4.53-1.28-3.8-3.16l0.2,0.27c-0.95,0.06-1.71,0.68-2.11,1.34c-0.42,0.67-0.5,1.41-0.38,1.99l-0.24,0.03         c0.02-0.84,0.03-1.51,0.04-2.05c0.02-0.47,0.04-0.71,0.06-0.71c0.02,0,0.04,0.24,0.07,0.71c0.02,0.53,0.05,1.21,0.08,2.05         l0.04,1.08l-0.28-1.05c-0.17-0.64-0.11-1.46,0.34-2.22c0.43-0.74,1.25-1.46,2.36-1.57l0.31-0.03l-0.12,0.3         c-0.27,0.69,0.08,1.54,0.75,2.08c0.67,0.57,1.62,0.73,2.57,0.46c0.95-0.25,1.84-0.82,2.73-1.48c0.9-0.65,1.83-1.41,3.03-1.85         c1.21-0.46,2.6-0.32,3.83,0.1c1.24,0.41,2.41,1.03,3.64,1.46c2.47,0.88,5.28,0.76,8.13,0.62c9.87-0.43,18.81-0.81,25.38-1.1         c3.19-0.11,5.79-0.2,7.7-0.26c0.85-0.02,1.55-0.03,2.09-0.04C197.26,397.31,197.51,397.32,197.51,397.34z"/>
						</g>
					</g>
				</g>
			</g>
			<g>
				<g>
					<g>
						<path style="fill:#FFBE56;" d="M205.7,417.76c0,0.18-18.69,0.32-41.74,0.32c-23.06,0-41.75-0.14-41.75-0.32        c0-0.18,18.69-0.32,41.75-0.32C187.01,417.44,205.7,417.59,205.7,417.76z"/>
					</g>
				</g>
			</g>
		</g>
		<g>
			<g>
				<g>
					<g>
						<path style="fill:#1E0F00;" d="M113.72,155.96c0.06,0,0.17,0.83,0.3,2.27c0.13,1.44,0.3,3.49,0.47,5.93l0.02,0.27l-0.27,0.03        c-1.97,0.23-4.19,0.49-6.52,0.76c-1.6,0.17-3.14,0.34-4.57,0.49l-0.32,0.03l-0.01-0.32c-0.11-2.97-0.18-5.52-0.2-7.33        c-0.02-1.81-0.01-2.88,0.07-2.88c0.07,0,0.18,1.06,0.31,2.86c0.13,1.8,0.28,4.35,0.43,7.32l-0.34-0.29        c1.43-0.16,2.97-0.34,4.57-0.53c2.34-0.25,4.56-0.48,6.53-0.7l-0.25,0.3c-0.12-2.44-0.2-4.5-0.24-5.95        C113.65,156.8,113.66,155.96,113.72,155.96z"/>
					</g>
				</g>
			</g>
			<g>
				<g>
					<g>
						<path style="fill:#1E0F00;" d="M108.05,150.25c0.1,0.15-2.27,1.95-5.12,4.28c-2.86,2.31-5.11,4.27-5.23,4.14        c-0.12-0.12,1.95-2.31,4.83-4.64C105.4,151.7,107.96,150.11,108.05,150.25z"/>
					</g>
				</g>
			</g>
			<g>
				<g>
					<g>
						<path style="fill:#1E0F00;" d="M117.93,158.42c-0.11,0.14-2.41-1.58-5.14-3.84c-2.73-2.25-4.84-4.19-4.73-4.33        c0.11-0.14,2.41,1.58,5.14,3.84C115.92,156.35,118.04,158.28,117.93,158.42z"/>
					</g>
				</g>
			</g>
		</g>
	</g>
	<g>
		<g>
			<g>
				
					<rect x="145.11" y="86.18" transform="matrix(0.9957 0.0926 -0.0926 0.9957 9.7319 -14.0933)" style="fill:#FFBE56;" width="23.34" height="23.34"/>
			</g>
		</g>
		<g>
			<g>
				<g>
					<g>
						<path style="fill:#1E0F00;" d="M155.99,102.8c-0.09-0.01-0.1-0.97-0.04-2.53c0.02-0.42,0.04-0.84,0.06-1.28        c0.02-0.24,0.06-0.52,0.21-0.79c0.15-0.27,0.39-0.48,0.63-0.63c0.49-0.3,1.01-0.44,1.4-0.74c0.4-0.3,0.74-0.72,0.92-1.22        c0.4-1.01-0.03-2.08-0.75-2.68c-0.71-0.62-1.61-0.8-2.33-0.71c-1.49,0.2-2.09,1.11-2.15,1.02c-0.03-0.02,0.06-0.26,0.38-0.59        c0.32-0.32,0.89-0.72,1.71-0.88c0.8-0.17,1.9-0.02,2.78,0.7c0.43,0.36,0.81,0.84,1.01,1.44c0.21,0.6,0.19,1.29-0.05,1.91        c-0.23,0.62-0.65,1.14-1.15,1.5c-0.52,0.37-1.07,0.51-1.47,0.74c-0.41,0.22-0.57,0.52-0.61,0.97        c-0.05,0.43-0.09,0.85-0.13,1.26C156.22,101.85,156.07,102.81,155.99,102.8z"/>
					</g>
				</g>
			</g>
			<g>
				<g>
					<g>
						<path style="fill:#1E0F00;" d="M155.65,104.12c0.02,0.08-0.01,0.19,0.03,0.27c0.07,0.1,0.04-0.01,0.11,0.01        c0.04-0.01,0.04-0.01,0.04,0.02c0.01,0.03,0.04-0.01,0.04-0.06c0-0.09-0.07-0.18-0.07-0.27c-0.02-0.08,0.17-0.2,0.41-0.03        c0.11,0.08,0.23,0.25,0.19,0.5c-0.05,0.26-0.29,0.43-0.5,0.46c-0.22,0.04-0.48-0.03-0.62-0.24c-0.14-0.2-0.1-0.42-0.03-0.54        C155.42,103.99,155.64,104.04,155.65,104.12z"/>
					</g>
				</g>
			</g>
		</g>
	</g>
	<g>
		<g>
			
				<rect x="32.6" y="93.21" transform="matrix(0.9957 0.0926 -0.0926 0.9957 10.3933 -4.0985)" style="fill:#FFBE56;" width="33.56" height="33.56"/>
		</g>
	</g>
	<g>
		<g>
			<g>
				<path style="fill:#1E0F00;" d="M75.13,114.29c0,0.18-2.18,0.32-4.86,0.32c-2.69,0-4.86-0.14-4.86-0.32      c0-0.18,2.18-0.32,4.86-0.32C72.96,113.98,75.13,114.12,75.13,114.29z"/>
			</g>
		</g>
	</g>
	<g>
		<g>
			<g>
				<path style="fill:#1E0F00;" d="M71.51,112.02c0.11-0.15,1.6,0.91,3.76,1.54l0.55,0.16l-0.43,0.38c-0.05,0.04-0.1,0.09-0.16,0.14      c-1.79,1.59-3.34,2.78-3.45,2.64c-0.12-0.13,1.24-1.53,3.03-3.12c0.05-0.05,0.11-0.09,0.16-0.14l0.12,0.54      C72.8,113.48,71.4,112.13,71.51,112.02z"/>
			</g>
		</g>
	</g>
	<g>
		<g>
			<g>
				<path style="fill:#1E0F00;" d="M71.55,163.2c0,0.04-0.76,0.07-2.14,0.1c-1.48,0.03-3.44,0.08-5.82,0.14      c-1.23,0.02-2.56,0.18-4.03,0.17c-1.46-0.03-3.05-0.18-4.63-0.76c-1.57-0.56-3.13-1.64-4.08-3.23      c-0.98-1.57-1.39-3.45-1.64-5.32c-0.77-7.49-1.34-14.25-1.77-19.16c-0.19-2.37-0.34-4.33-0.45-5.81      c-0.09-1.37-0.12-2.13-0.08-2.14c0.04,0,0.16,0.75,0.33,2.12c0.17,1.47,0.39,3.43,0.66,5.79c0.51,4.99,1.19,11.7,1.95,19.12      c0.24,1.83,0.64,3.63,1.54,5.08c0.87,1.47,2.27,2.46,3.75,3.01c1.48,0.55,3.01,0.73,4.44,0.78c1.42,0.04,2.78-0.09,4.01-0.09      c2.47-0.03,4.46,0.02,5.83,0.07C70.79,163.11,71.55,163.16,71.55,163.2z"/>
			</g>
		</g>
	</g>
	<g>
		<g>
			<g>
				<path style="fill:#1E0F00;" d="M69.36,166.39c-0.13-0.11,1.19-1.76,3.24-3.33c0.08-0.06,0.15-0.11,0.22-0.17l0.05,0.54      c-2.22-1.13-3.53-2.64-3.41-2.75c0.12-0.13,1.57,1.12,3.7,2.18l0.45,0.23l-0.41,0.31c-0.07,0.05-0.14,0.11-0.22,0.17      C70.98,165.1,69.49,166.52,69.36,166.39z"/>
			</g>
		</g>
	</g>
	<g>
		<g>
			
				<rect x="14.95" y="285.64" transform="matrix(0.9957 0.0926 -0.0926 0.9957 28.0726 -1.5845)" style="fill:#FFBE56;" width="32.34" height="32.34"/>
		</g>
	</g>
	<g>
		<g>
			<rect x="19.52" y="219.85" style="fill:#0E538C;" width="32.34" height="32.34"/>
		</g>
	</g>
	<g>
		<g>
			<g>
				<path style="fill:#1E0F00;" d="M53.5,296.53c-0.03-0.05,0.86-0.63,2.39-1.8c1.53-1.15,3.64-2.98,5.92-5.54      c2.25-2.58,4.63-5.94,6.53-10.05c1.9-4.1,3.31-8.95,3.65-14.15c0.33-5.2-0.5-10.23-2.34-14.34c-1.8-4.15-4.67-7.21-7.46-9.16      c-2.8-1.97-5.51-2.8-7.37-3.16c-1.88-0.35-2.96-0.3-2.96-0.37c0-0.02,0.27-0.04,0.78-0.04c0.51-0.02,1.26,0.03,2.22,0.17      c1.91,0.28,4.69,1.07,7.59,3.03c2.87,1.93,5.87,5.06,7.74,9.29c1.92,4.2,2.78,9.33,2.44,14.62c-0.34,5.3-1.79,10.22-3.75,14.36      c-1.96,4.15-4.41,7.53-6.72,10.1c-2.34,2.55-4.52,4.35-6.11,5.44c-0.77,0.59-1.43,0.95-1.86,1.22      C53.75,296.41,53.51,296.54,53.5,296.53z"/>
			</g>
		</g>
	</g>
	<g>
		<g>
			<g>
				<path style="fill:#1E0F00;" d="M60.54,298.24c0.01,0.18-3.43,0.51-7.69,0.75l-0.02,0l-0.38,0.02l0.05-0.38      c0.52-4.23,1.09-7.63,1.26-7.61c0.17,0.02-0.11,3.46-0.63,7.69l-0.33-0.36l0.02,0C57.07,298.12,60.53,298.06,60.54,298.24z"/>
			</g>
		</g>
	</g>
	<g>
		<g>
			<g>
				<path style="fill:#1E0F00;" d="M111.72,210.23c0,0.18-12.46,0.32-27.82,0.32c-15.37,0-27.82-0.14-27.82-0.32      c0-0.18,12.45-0.32,27.82-0.32C99.26,209.91,111.72,210.06,111.72,210.23z"/>
			</g>
		</g>
	</g>
	<g>
		<g>
			<g>
				<path style="fill:#1E0F00;" d="M109.01,214.23c-0.13-0.11,1.33-2.08,3.27-4.4c0.05-0.06,0.1-0.12,0.15-0.18l0.08,0.47      c-2.49-1.53-4.39-2.86-4.3-3c0.09-0.15,2.14,0.95,4.64,2.46l0.31,0.19l-0.24,0.28c-0.05,0.06-0.1,0.12-0.15,0.18      C110.83,212.56,109.15,214.34,109.01,214.23z"/>
			</g>
		</g>
	</g>
	<g>
		<g>
			<g>
				<g>
					<path style="fill:#1E0F00;" d="M239.24,356.5c0,0.18-5.19,0.32-11.6,0.32c-6.41,0-11.6-0.14-11.6-0.32       c0-0.18,5.19-0.32,11.6-0.32C234.05,356.18,239.24,356.32,239.24,356.5z"/>
				</g>
			</g>
		</g>
		<g>
			<g>
				<g>
					<path style="fill:#1E0F00;" d="M237.81,362.37c-0.07-0.02,0-0.66,0.31-1.68c0.32-1.01,0.88-2.41,1.9-3.76l-0.03,0.33       c-0.09-0.17-0.19-0.36-0.28-0.54c-1.63-3.14-3.67-5.19-3.55-5.31c0.11-0.15,2.43,1.78,4.11,5.01c0.1,0.19,0.2,0.38,0.29,0.55       l0.09,0.17l-0.12,0.16C238.6,359.88,238,362.44,237.81,362.37z"/>
				</g>
			</g>
		</g>
	</g>
	<g>
		<g>
			<g>
				
					<rect x="245.04" y="343.62" transform="matrix(0.9979 -0.0654 0.0654 0.9979 -22.9377 17.8209)" style="fill:#FFBE56;" width="31.72" height="31.72"/>
			</g>
		</g>
		<g>
			<g>
				<g>
					<g>
						<g>
							<g>
								<path style="fill:none;" d="M267.46,359.81c1.92-1.8,2.03-4.81,0.23-6.74c-1.8-1.92-4.81-2.03-6.74-0.23          c-1.65,1.54-1.96,3.96-0.89,5.84l0,0l-0.97,0.9l0.23,1.61l-1.51-0.42l-1.21,1.13l0.23,1.61l-1.5-0.42l-1.04,0.97l0.14,0.98          l-0.92-0.26l-0.61,0.57l-0.09,1.49l2.22,0.56l7.22-6.73C263.96,361.44,266.02,361.16,267.46,359.81z M266.76,353.95          c0.52,0.55,0.49,1.42-0.07,1.93c-0.55,0.52-1.42,0.49-1.93-0.07s-0.49-1.42,0.07-1.93          C265.38,353.37,266.24,353.4,266.76,353.95z"/>
							</g>
						</g>
						<g>
							<g>
								<g>
									<path style="fill:#FFFFFF;" d="M266.76,353.95c-0.06,0.08-0.44-0.31-1.11-0.2c-0.32,0.05-0.67,0.28-0.84,0.65           c-0.18,0.36-0.13,0.87,0.19,1.2c0.31,0.34,0.81,0.42,1.19,0.27c0.38-0.14,0.63-0.48,0.7-0.79           C267.04,354.41,266.67,354,266.76,353.95c0.01-0.07,0.62,0.25,0.57,1.2c-0.04,0.45-0.34,1-0.92,1.26           c-0.56,0.27-1.38,0.17-1.88-0.38c-0.51-0.54-0.56-1.36-0.25-1.9c0.3-0.56,0.87-0.82,1.32-0.83           C266.55,353.31,266.83,353.94,266.76,353.95z"/>
								</g>
							</g>
						</g>
						<g>
							<g>
								<g>
									<path style="fill:#FFFFFF;" d="M267.46,359.81c0.01,0.01-0.07,0.11-0.25,0.29c-0.19,0.16-0.48,0.4-0.91,0.63           c-0.84,0.44-2.39,0.85-4.12,0.12l0.21-0.03c-1.9,1.8-4.34,4.13-7.15,6.8l-0.11,0.11l-0.15-0.04           c-0.7-0.17-1.45-0.36-2.23-0.55l-0.24-0.06l0.01-0.25c0.03-0.47,0.06-0.97,0.08-1.49l0.01-0.12l0.09-0.08           c0.19-0.18,0.4-0.37,0.6-0.57l0.13-0.12l0.17,0.05c0.29,0.08,0.6,0.17,0.92,0.25l-0.39,0.34           c-0.04-0.31-0.09-0.64-0.14-0.98l-0.02-0.16l0.12-0.11c0.33-0.31,0.68-0.64,1.04-0.97l0.13-0.12l0.17,0.05           c0.48,0.13,0.99,0.28,1.51,0.42l-0.4,0.35c-0.07-0.51-0.15-1.06-0.23-1.61l-0.02-0.16l0.12-0.11           c0.1-0.09,0.21-0.2,0.32-0.3c0.3-0.28,0.6-0.56,0.89-0.83l0.13-0.12l0.17,0.05c0.51,0.14,1.01,0.28,1.5,0.42l-0.4,0.35           c-0.08-0.54-0.15-1.08-0.23-1.61l-0.02-0.16l0.12-0.11c0.33-0.3,0.65-0.6,0.97-0.9l-0.06,0.38           c-0.81-1.42-0.84-3.16-0.22-4.53c0.61-1.39,1.82-2.38,3.12-2.77c1.3-0.41,2.66-0.23,3.72,0.3           c1.07,0.53,1.82,1.41,2.26,2.29c0.86,1.84,0.39,3.56-0.13,4.45C268,359.51,267.46,359.81,267.46,359.81           c-0.05-0.04,0.42-0.41,0.88-1.33c0.44-0.89,0.81-2.51-0.03-4.17c-0.42-0.8-1.13-1.59-2.1-2.04           c-0.96-0.46-2.19-0.6-3.35-0.22c-1.15,0.37-2.22,1.26-2.74,2.49c-0.53,1.22-0.49,2.75,0.22,3.99l0.12,0.21l-0.18,0.17           c-0.32,0.3-0.64,0.6-0.97,0.91l0.1-0.27c0.08,0.53,0.16,1.07,0.23,1.61l0.07,0.48l-0.47-0.13c-0.5-0.14-1-0.28-1.51-0.42           l0.3-0.07c-0.29,0.28-0.59,0.55-0.89,0.83c-0.11,0.1-0.22,0.21-0.32,0.3l0.1-0.28c0.08,0.55,0.16,1.1,0.23,1.61l0.07,0.48           l-0.47-0.13c-0.52-0.15-1.03-0.29-1.5-0.42l0.3-0.07c-0.36,0.33-0.72,0.67-1.04,0.97l0.1-0.27           c0.05,0.34,0.1,0.67,0.14,0.98l0.07,0.47l-0.46-0.13c-0.32-0.09-0.63-0.18-0.92-0.26l0.29-0.07           c-0.21,0.2-0.42,0.39-0.61,0.56l0.1-0.2c-0.03,0.52-0.07,1.03-0.1,1.49l-0.22-0.31c0.77,0.2,1.52,0.39,2.22,0.57           l-0.27,0.07c2.86-2.62,5.35-4.9,7.28-6.66l0.1-0.09l0.11,0.05c1.57,0.72,3.04,0.41,3.87,0.04           C267.07,360.15,267.43,359.77,267.46,359.81z"/>
								</g>
							</g>
						</g>
					</g>
				</g>
				<g>
					<g>
						<g>
							<g>
								<g>
									<path style="fill:none;" d="M267.46,359.81c1.92-1.8,2.03-4.81,0.23-6.74c-1.8-1.92-4.81-2.03-6.74-0.23           c-1.65,1.54-1.96,3.96-0.89,5.84l0,0l-0.97,0.9l0.23,1.61l-1.51-0.42l-1.21,1.13l0.23,1.61l-1.5-0.42l-1.04,0.97l0.14,0.98           l-0.92-0.26l-0.61,0.57l-0.09,1.49l2.22,0.56l7.22-6.73C263.96,361.44,266.02,361.16,267.46,359.81z M266.76,353.95           c0.52,0.55,0.49,1.42-0.07,1.93c-0.55,0.52-1.42,0.49-1.93-0.07s-0.49-1.42,0.07-1.93           C265.38,353.37,266.24,353.4,266.76,353.95z"/>
								</g>
							</g>
							<g>
								<g>
									<g>
										<path style="fill:#FFFFFF;" d="M266.76,353.95c-0.06,0.08-0.44-0.31-1.11-0.2c-0.32,0.05-0.67,0.28-0.84,0.65            c-0.18,0.36-0.13,0.87,0.19,1.2c0.31,0.34,0.81,0.42,1.19,0.27c0.38-0.14,0.63-0.48,0.7-0.79            C267.04,354.41,266.67,354,266.76,353.95c0.01-0.07,0.62,0.25,0.57,1.2c-0.04,0.45-0.34,1-0.92,1.26            c-0.56,0.27-1.38,0.17-1.88-0.38c-0.51-0.54-0.56-1.36-0.25-1.9c0.3-0.56,0.87-0.82,1.32-0.83            C266.55,353.31,266.83,353.94,266.76,353.95z"/>
									</g>
								</g>
							</g>
							<g>
								<g>
									<g>
										<path style="fill:#FFFFFF;" d="M267.46,359.81c0.01,0.01-0.07,0.11-0.25,0.29c-0.19,0.16-0.48,0.4-0.91,0.63            c-0.84,0.44-2.39,0.85-4.12,0.12l0.21-0.03c-1.9,1.8-4.34,4.13-7.15,6.8l-0.11,0.11l-0.15-0.04            c-0.7-0.17-1.45-0.36-2.23-0.55l-0.24-0.06l0.01-0.25c0.03-0.47,0.06-0.97,0.08-1.49l0.01-0.12l0.09-0.08            c0.19-0.18,0.4-0.37,0.6-0.57l0.13-0.12l0.17,0.05c0.29,0.08,0.6,0.17,0.92,0.25l-0.39,0.34            c-0.04-0.31-0.09-0.64-0.14-0.98l-0.02-0.16l0.12-0.11c0.33-0.31,0.68-0.64,1.04-0.97l0.13-0.12l0.17,0.05            c0.48,0.13,0.99,0.28,1.51,0.42l-0.4,0.35c-0.07-0.51-0.15-1.06-0.23-1.61l-0.02-0.16l0.12-0.11            c0.1-0.09,0.21-0.2,0.32-0.3c0.3-0.28,0.6-0.56,0.89-0.83l0.13-0.12l0.17,0.05c0.51,0.14,1.01,0.28,1.5,0.42l-0.4,0.35            c-0.08-0.54-0.15-1.08-0.23-1.61l-0.02-0.16l0.12-0.11c0.33-0.3,0.65-0.6,0.97-0.9l-0.06,0.38            c-0.81-1.42-0.84-3.16-0.22-4.53c0.61-1.39,1.82-2.38,3.12-2.77c1.3-0.41,2.66-0.23,3.72,0.3            c1.07,0.53,1.82,1.41,2.26,2.29c0.86,1.84,0.39,3.56-0.13,4.45C268,359.51,267.46,359.81,267.46,359.81            c-0.05-0.04,0.42-0.41,0.88-1.33c0.44-0.89,0.81-2.51-0.03-4.17c-0.42-0.8-1.13-1.59-2.1-2.04            c-0.96-0.46-2.19-0.6-3.35-0.22c-1.15,0.37-2.22,1.26-2.74,2.49c-0.53,1.22-0.49,2.75,0.22,3.99l0.12,0.21l-0.18,0.17            c-0.32,0.3-0.64,0.6-0.97,0.91l0.1-0.27c0.08,0.53,0.16,1.07,0.23,1.61l0.07,0.48l-0.47-0.13c-0.5-0.14-1-0.28-1.51-0.42            l0.3-0.07c-0.29,0.28-0.59,0.55-0.89,0.83c-0.11,0.1-0.22,0.21-0.32,0.3l0.1-0.28c0.08,0.55,0.16,1.1,0.23,1.61l0.07,0.48            l-0.47-0.13c-0.52-0.15-1.03-0.29-1.5-0.42l0.3-0.07c-0.36,0.33-0.72,0.67-1.04,0.97l0.1-0.27            c0.05,0.34,0.1,0.67,0.14,0.98l0.07,0.47l-0.46-0.13c-0.32-0.09-0.63-0.18-0.92-0.26l0.29-0.07            c-0.21,0.2-0.42,0.39-0.61,0.56l0.1-0.2c-0.03,0.52-0.07,1.03-0.1,1.49l-0.22-0.31c0.77,0.2,1.52,0.39,2.22,0.57            l-0.27,0.07c2.86-2.62,5.35-4.9,7.28-6.66l0.1-0.09l0.11,0.05c1.57,0.72,3.04,0.41,3.87,0.04            C267.07,360.15,267.43,359.77,267.46,359.81z"/>
									</g>
								</g>
							</g>
						</g>
					</g>
				</g>
			</g>
		</g>
	</g>
	<g>
		<g>
			<g>
				<g>
					<path style="fill:#1E0F00;" d="M264.04,375.13c0.02,0,0.05,0.27,0.09,0.79c0.04,0.58,0.08,1.33,0.14,2.26       c0.1,1.97,0.21,4.82,0.3,8.34c0.08,3.52,0.13,7.72,0.1,12.37c-0.02,2.33-0.05,4.77-0.11,7.31c-0.04,1.26-0.03,2.57-0.29,3.9       c-0.24,1.31-0.87,2.7-2.05,3.56c-1.17,0.86-2.56,1.16-3.86,1.37c-1.31,0.18-2.59,0.32-3.85,0.46c-2.52,0.26-4.97,0.45-7.3,0.57       c-4.66,0.25-8.86,0.25-12.38,0.13c-3.52-0.11-6.37-0.34-8.33-0.53c-0.98-0.09-1.74-0.19-2.25-0.25       c-0.51-0.07-0.78-0.11-0.78-0.14c0-0.02,0.28-0.02,0.79,0.01c0.58,0.03,1.33,0.08,2.26,0.14c1.96,0.12,4.81,0.27,8.32,0.33       c3.51,0.06,7.7,0.01,12.34-0.27c2.32-0.13,4.75-0.34,7.26-0.61c1.25-0.13,2.54-0.28,3.82-0.46c1.26-0.2,2.56-0.5,3.57-1.25       c1.02-0.74,1.58-1.94,1.81-3.17c0.25-1.24,0.25-2.53,0.28-3.79c0.05-2.53,0.1-4.97,0.15-7.3c0.06-4.65,0.06-8.84,0.04-12.36       c-0.04-3.46-0.07-6.29-0.09-8.33c-0.01-0.93-0.01-1.68-0.02-2.27C264,375.4,264.01,375.13,264.04,375.13z"/>
				</g>
			</g>
		</g>
		<g>
			<g>
				<g>
					<path style="fill:#1E0F00;" d="M230.67,422.2c-0.05,0.07-1.07-0.59-2.78-1.61c-1.7-1.01-4.12-2.35-6.93-3.61l-0.45-0.2       l0.37-0.32c0.21-0.18,0.43-0.38,0.65-0.58c2.46-2.19,4.72-4.14,6.37-5.54c1.65-1.39,2.71-2.22,2.76-2.15       c0.06,0.07-0.89,1.01-2.46,2.49c-1.58,1.48-3.78,3.48-6.25,5.67c-0.22,0.2-0.44,0.39-0.65,0.58l-0.08-0.52       c2.84,1.28,5.24,2.7,6.9,3.82C229.78,421.35,230.71,422.14,230.67,422.2z"/>
				</g>
			</g>
		</g>
	</g>
	<g>
		<g>
			<g>
				<g>
					<path style="fill:#FFBE56;" d="M206.81,147.23c0,0,1.2-0.36,3.41-0.04c2.14,0.36,5.36,1.62,7.85,4.78       c1.22,1.56,2.21,3.6,2.47,5.96c0.12,1.17,0.08,2.39-0.13,3.63c-0.24,1.23-0.65,2.46-1.23,3.64c-1.15,2.37-3.06,4.54-5.55,6       c-2.49,1.46-5.57,2.05-8.59,1.7c-3.03-0.34-5.87-1.55-8.11-3.35c-2.26-1.79-3.86-4.19-4.72-6.68c-0.87-2.49-1.05-5.07-0.6-7.38       c0.46-2.3,1.55-4.31,2.96-5.72c1.39-1.44,2.99-2.36,4.47-2.89c1.48-0.54,2.86-0.71,3.96-0.67c1.11,0.02,1.95,0.24,2.5,0.41       c0.55,0.2,0.82,0.32,0.82,0.34c-0.02,0.1-1.14-0.52-3.32-0.5c-1.08,0.01-2.41,0.2-3.83,0.76c-1.42,0.55-2.95,1.47-4.27,2.87       c-1.33,1.38-2.35,3.3-2.77,5.51c-0.41,2.21-0.22,4.7,0.63,7.08c0.85,2.39,2.39,4.67,4.55,6.39c2.15,1.72,4.89,2.88,7.8,3.2       c2.9,0.34,5.84-0.23,8.21-1.61c2.38-1.38,4.22-3.45,5.34-5.72c0.57-1.13,0.97-2.31,1.2-3.49c0.21-1.18,0.26-2.35,0.16-3.47       c-0.22-2.25-1.15-4.21-2.3-5.74c-2.36-3.09-5.45-4.39-7.53-4.81C208.03,147.04,206.81,147.31,206.81,147.23z"/>
				</g>
			</g>
		</g>
		<g>
			<g>
				<g>
					<path style="fill:#FFBE56;" d="M238.31,131.05c0.04,0.01,0.01,0.47-0.14,1.31c-0.15,0.83-0.45,2.02-1,3.44       c-1.07,2.82-3.35,6.54-7.1,9.36c-3.74,2.81-7.96,3.97-10.96,4.22c-1.51,0.13-2.74,0.1-3.58,0.01c-0.84-0.09-1.3-0.19-1.29-0.23       c0.01-0.12,1.87,0.15,4.83-0.23c2.93-0.36,7-1.55,10.63-4.28c3.63-2.73,5.9-6.3,7.06-9.02       C237.94,132.89,238.19,131.02,238.31,131.05z"/>
				</g>
			</g>
		</g>
		<g>
			<g>
				<g>
					<path style="fill:#FFBE56;" d="M240.56,133.15c-0.14,0.09-1.22-1.31-2.43-3.17l0.49,0.05c-0.05,0.05-0.1,0.1-0.15,0.15       c-1.61,1.66-3.02,2.91-3.14,2.79s1.08-1.57,2.69-3.23c0.05-0.05,0.1-0.1,0.15-0.15l0.28-0.29l0.22,0.34       C239.87,131.5,240.71,133.06,240.56,133.15z"/>
				</g>
			</g>
		</g>
	</g>
	<g>
		<g>
			
				<rect x="249.49" y="101.89" transform="matrix(0.9914 -0.131 0.131 0.9914 -13.0421 35.6702)" style="fill:#0E538C;" width="30.1" height="30.1"/>
		</g>
	</g>
	<g>
		<g>
			
				<rect x="209.89" y="95.77" transform="matrix(0.9902 0.14 -0.14 0.9902 17.7259 -30.3942)" style="fill:#FFBE56;" width="30.1" height="30.1"/>
		</g>
	</g>
	<g>
		<g>
			<g>
				<path style="fill:#FFBE56;" d="M249.65,116.15c0,0.18-2.31,0.38-5.17,0.46c-2.86,0.08-5.18-0.01-5.19-0.18      c0-0.18,2.31-0.38,5.17-0.46C247.32,115.9,249.65,115.98,249.65,116.15z"/>
			</g>
		</g>
	</g>
	<g>
		<g>
			<g>
				<g>
					<g>
						<path style="fill:#FFBE56;" d="M111.44,149.77c0.01-0.02,0.28,0.04,0.8,0.19c0.51,0.17,1.26,0.47,2.12,1.05        c1.69,1.12,3.9,3.5,4.62,7.2c0.37,1.82,0.24,3.93-0.49,6c-0.73,2.06-2.06,4.06-3.87,5.72c-1.81,1.66-4.11,2.98-6.72,3.63        c-2.59,0.64-5.47,0.69-8.19-0.2c-2.72-0.85-5.07-2.68-6.46-4.99c-1.43-2.29-1.97-4.93-1.93-7.38        c0.07-2.46,0.79-4.77,1.96-6.63c1.17-1.85,2.7-3.26,4.26-4.25c3.14-2.02,6.22-2.46,8.25-2.51c1.03-0.01,1.82,0.07,2.35,0.16        c0.53,0.09,0.81,0.15,0.8,0.17c-0.01,0.07-1.13-0.17-3.15-0.08c-1.99,0.12-5,0.63-8.01,2.64c-1.5,0.98-2.95,2.37-4.06,4.15        c-1.1,1.78-1.77,4-1.82,6.36c-0.03,2.35,0.5,4.87,1.87,7.04c1.33,2.19,3.53,3.9,6.12,4.72c2.59,0.84,5.35,0.81,7.84,0.2        c2.5-0.61,4.72-1.87,6.47-3.45c1.75-1.59,3.05-3.5,3.77-5.47c0.72-1.98,0.87-3.98,0.54-5.74c-0.63-3.56-2.71-5.93-4.32-7.08        C112.58,150.02,111.4,149.86,111.44,149.77z"/>
					</g>
				</g>
			</g>
			<g>
				<g>
					<g>
						<path style="fill:#FFBE56;" d="M157.74,119.22c0.02,0,0.05,0.22,0.08,0.64c0.02,0.42,0.09,1.04,0.08,1.84        c0.03,1.6-0.11,3.92-0.63,6.74c-0.52,2.82-1.51,6.12-3.17,9.53c-1.65,3.42-4.02,6.92-7.11,10.04        c-3.12,3.09-6.62,5.46-10.04,7.11c-3.42,1.66-6.72,2.65-9.53,3.17c-2.82,0.52-5.14,0.66-6.74,0.63        c-0.8,0.02-1.42-0.06-1.84-0.08c-0.42-0.03-0.64-0.06-0.64-0.08c0-0.06,0.88-0.04,2.47-0.09c1.59-0.05,3.88-0.25,6.66-0.83        c5.51-1.1,13.07-4.16,19.21-10.29c6.13-6.14,9.19-13.7,10.29-19.21c0.57-2.77,0.78-5.07,0.82-6.66        C157.7,120.1,157.68,119.22,157.74,119.22z"/>
					</g>
				</g>
			</g>
		</g>
		<g>
			<g>
				<g>
					<path style="fill:#FFBE56;" d="M163.07,124.07c-0.14,0.1-2.37-2.71-5.06-6.36l0.53-0.03c-0.08,0.13-0.16,0.28-0.24,0.42       c-2.37,4.12-4.41,7.39-4.56,7.3c-0.15-0.09,1.64-3.5,4.01-7.62c0.08-0.14,0.17-0.29,0.24-0.42l0.24-0.42l0.29,0.39       C161.2,121,163.21,123.97,163.07,124.07z"/>
				</g>
			</g>
		</g>
	</g>
</g>
<g id="Character">
	<g>
		<g>
			<g>
				
					<ellipse transform="matrix(0.1279 -0.9918 0.9918 0.1279 144.5075 565.4384)" style="fill:#FFBE56;" cx="393.78" cy="200.55" rx="36.34" ry="36.33"/>
				<g>
					<g>
						<g>
							<g>
								<path style="fill:#FFFFFF;" d="M406.26,215.19l-24.93,0.03l0-3.06c-0.01-6.88,5.57-12.47,12.45-12.48l0,0          c6.88-0.01,12.47,5.57,12.48,12.45L406.26,215.19z"/>
							</g>
						</g>
					</g>
					<g>
						<g>
							<g>
								<path style="fill:#FFFFFF;" d="M401.1,193.21c0.01,4.05-3.27,7.33-7.32,7.34c-4.05,0.01-7.33-3.27-7.34-7.32          c-0.01-4.05,3.27-7.33,7.32-7.34C397.81,185.89,401.09,189.17,401.1,193.21z"/>
							</g>
						</g>
					</g>
				</g>
			</g>
		</g>
	</g>
</g>
<g id="Plant">
</g>
<g id="Floor">
</g>
</svg>